<svg width="169" height="27" viewBox="0 0 169 27" fill="none" xmlns="http://www.w3.org/2000/svg">
<path d="M15.0469 21.4375L0.015625 15.1719V12L15.0469 5.71875V9.84375L5.76562 13.5781L15.0469 17.2969V21.4375ZM28.5312 0.71875L21.0312 26.9844H16.25L23.7969 0.71875H28.5312ZM41.3906 1.20312L45.1562 26.5H38.4219L38.0938 21.9531H35.7344L35.3438 26.5H28.5312L31.875 1.20312H41.3906ZM37.9062 17.4688C37.5729 14.6042 37.2396 11.0677 36.9062 6.85938C36.2396 11.6927 35.8229 15.2292 35.6562 17.4688H37.9062ZM52.4062 5.76562L52.1562 8.48438C53.0729 6.53646 54.401 5.50521 56.1406 5.39062V12.6875C54.9844 12.6875 54.1354 12.8438 53.5938 13.1562C53.0521 13.4688 52.7188 13.9062 52.5938 14.4688C52.4688 15.0208 52.4062 16.3021 52.4062 18.3125V26.5H46.0938V5.76562H52.4062ZM153.109 5.71875L168.141 11.9688V15.1562L153.109 21.4375V17.3125L162.391 13.5781L153.109 9.85938V5.71875Z" fill="#FF8303"/>
<path d="M57.75 1.20312H62.6719C65.849 1.20312 67.9948 1.34896 69.1094 1.64062C70.2344 1.93229 71.0885 2.41146 71.6719 3.07812C72.2552 3.74479 72.6198 4.48958 72.7656 5.3125C72.9115 6.125 72.9844 7.72917 72.9844 10.125V18.9844C72.9844 21.2552 72.875 22.776 72.6562 23.5469C72.4479 24.3073 72.0781 24.9062 71.5469 25.3438C71.0156 25.7708 70.3594 26.0729 69.5781 26.25C68.7969 26.4167 67.6198 26.5 66.0469 26.5H57.75V1.20312ZM64.3281 5.53125V22.1719C65.276 22.1719 65.8594 21.9844 66.0781 21.6094C66.2969 21.224 66.4062 20.1875 66.4062 18.5V8.67188C66.4062 7.52604 66.3698 6.79167 66.2969 6.46875C66.224 6.14583 66.0573 5.91146 65.7969 5.76562C65.5365 5.60938 65.0469 5.53125 64.3281 5.53125ZM81.5625 1.20312V6.89062C82.1042 6.39062 82.6875 6.01562 83.3125 5.76562C83.9479 5.51562 84.625 5.39062 85.3438 5.39062C86.4479 5.39062 87.3854 5.67188 88.1562 6.23438C88.9375 6.79688 89.4115 7.44792 89.5781 8.1875C89.7552 8.91667 89.8438 10.2552 89.8438 12.2031V26.5H83.5312V11.9062C83.5312 10.6979 83.4688 9.92188 83.3438 9.57812C83.2292 9.23438 82.9635 9.0625 82.5469 9.0625C82.1615 9.0625 81.901 9.23958 81.7656 9.59375C81.6302 9.94792 81.5625 10.651 81.5625 11.7031V26.5H75.25V1.20312H81.5625ZM98.3438 5.76562L98.0938 8.48438C99.0104 6.53646 100.339 5.50521 102.078 5.39062V12.6875C100.922 12.6875 100.073 12.8438 99.5312 13.1562C98.9896 13.4688 98.6562 13.9062 98.5312 14.4688C98.4062 15.0208 98.3438 16.3021 98.3438 18.3125V26.5H92.0312V5.76562H98.3438ZM117.953 5.76562V26.5H111.531L111.641 24.7812C111.203 25.4792 110.661 26.0052 110.016 26.3594C109.38 26.7031 108.646 26.875 107.812 26.875C106.865 26.875 106.078 26.7083 105.453 26.375C104.828 26.0417 104.365 25.599 104.062 25.0469C103.771 24.4948 103.589 23.9219 103.516 23.3281C103.443 22.724 103.406 21.5312 103.406 19.75V5.76562H109.719V19.875C109.719 21.4896 109.766 22.4479 109.859 22.75C109.964 23.0521 110.234 23.2031 110.672 23.2031C111.141 23.2031 111.417 23.0469 111.5 22.7344C111.594 22.4219 111.641 21.4167 111.641 19.7188V5.76562H117.953ZM126.531 1.20312V7.1875C127.052 6.58333 127.63 6.13542 128.266 5.84375C128.911 5.54167 129.609 5.39062 130.359 5.39062C131.224 5.39062 131.974 5.52604 132.609 5.79688C133.245 6.06771 133.729 6.44792 134.062 6.9375C134.396 7.42708 134.594 7.90625 134.656 8.375C134.729 8.84375 134.766 9.84375 134.766 11.375V20.7188C134.766 22.2396 134.661 23.375 134.453 24.125C134.255 24.8646 133.781 25.5104 133.031 26.0625C132.281 26.6042 131.391 26.875 130.359 26.875C129.62 26.875 128.927 26.7135 128.281 26.3906C127.646 26.0677 127.062 25.5833 126.531 24.9375L126.125 26.5H120.219V1.20312H126.531ZM128.453 11.6562C128.453 10.5833 128.385 9.88542 128.25 9.5625C128.115 9.22917 127.849 9.0625 127.453 9.0625C127.068 9.0625 126.818 9.20833 126.703 9.5C126.589 9.78125 126.531 10.5 126.531 11.6562V20.5938C126.531 21.7083 126.594 22.4219 126.719 22.7344C126.854 23.0469 127.115 23.2031 127.5 23.2031C127.896 23.2031 128.151 23.0417 128.266 22.7188C128.391 22.3958 128.453 21.6198 128.453 20.3906V11.6562ZM151.125 13.0469V18.125C151.125 19.9896 151.031 21.3594 150.844 22.2344C150.656 23.099 150.255 23.9115 149.641 24.6719C149.026 25.4219 148.234 25.9792 147.266 26.3438C146.307 26.6979 145.203 26.875 143.953 26.875C142.557 26.875 141.375 26.724 140.406 26.4219C139.438 26.1094 138.682 25.6458 138.141 25.0312C137.609 24.4062 137.229 23.6562 137 22.7812C136.771 21.8958 136.656 20.5729 136.656 18.8125V13.5C136.656 11.5729 136.865 10.0677 137.281 8.98438C137.698 7.90104 138.448 7.03125 139.531 6.375C140.615 5.71875 142 5.39062 143.688 5.39062C145.104 5.39062 146.318 5.60417 147.328 6.03125C148.349 6.44792 149.135 6.99479 149.688 7.67188C150.24 8.34896 150.615 9.04688 150.812 9.76562C151.021 10.4844 151.125 11.5781 151.125 13.0469ZM144.812 11.4844C144.812 10.4219 144.755 9.75521 144.641 9.48438C144.526 9.20312 144.281 9.0625 143.906 9.0625C143.531 9.0625 143.281 9.20312 143.156 9.48438C143.031 9.75521 142.969 10.4219 142.969 11.4844V20.8438C142.969 21.8229 143.031 22.4635 143.156 22.7656C143.281 23.0573 143.526 23.2031 143.891 23.2031C144.266 23.2031 144.51 23.0677 144.625 22.7969C144.75 22.526 144.812 21.9427 144.812 21.0469V11.4844Z" fill="#F0E3CA"/>
</svg>
